#!OML:ASF H:\Terrain\Patient Classification 1\Walking\liu\liu.ASF
:FULLY-SPECIFIED
:DEGREES
384
root 10.1585 17.6092 24.8473 5.41937 -3.82152 1.53735
lowerback -4.68794 -0.223472 -3.79887
upperback 0.65171 -0.128798 1.59969
thorax 3.31776 -0.150655 3.78123
lowerneck -21.6204 -3.37692 -11.3858
upperneck 24.253 -3.98542 11.0327
head 12.0249 -1.43452 5.45671
rclavicle 6.31141e-015 1.47101e-014
rhumerus -35.6839 14.0075 -89.5285
rradius 32.83
rwrist -10.7853
rhand -28.2047 -24.5572
rfingers 7.12502
rthumb -1.58363 -54.5311
lclavicle 6.31141e-015 1.47101e-014
lhumerus -33.9292 -8.3019 89.1019
lradius 24.9689
lwrist 0.463647
lhand -11.9889 -26.5407
lfingers 7.12502
lthumb 14.0677 2.96317
rfemur -19.4786 -5.27396 18.6485
rtibia 68.671
rfoot -0.577421 -16.3645
rtoes -10.7818
lfemur -16.8438 4.20416 -26.4617
ltibia 19.7476
lfoot -8.1769 4.5251
ltoes 2.19106
385
root 10.1845 17.6066 24.9901 5.34414 -3.32533 2.08567
lowerback -5.04095 -0.468436 -4.23774
upperback 1.02878 -0.407409 1.47911
thorax 3.93831 -0.318854 3.88304
lowerneck -22.1912 -3.30978 -10.8303
upperneck 24.2935 -3.86626 10.4781
head 12.112 -1.38495 5.16742
rclavicle -1.55052e-014 -2.46493e-014
rhumerus -35.396 13.9033 -89.3961
rradius 32.3384
rwrist -10.6572
rhand -29.1136 -24.0096
rfingers 7.12502
rthumb -2.46138 -53.9751
lclavicle -1.55052e-014 -2.46493e-014
lhumerus -32.178 -8.6136 88.9823
lradius 25.0266
lwrist 0.370903
lhand -11.7771 -26.3104
lfingers 7.12502
lthumb 14.2718 3.17922
rfemur -20.5435 -5.8302 18.1783
rtibia 68.958
rfoot -1.4463 -15.6053
rtoes -14.3213
lfemur -16.3014 3.93561 -27.1819
ltibia 19.9511
lfoot -8.89466 4.31969
ltoes 2.0175
386
root 10.2074 17.6067 25.1652 5.0613 -2.76321 2.31541
lowerback -5.19402 -0.670852 -4.25063
upperback 1.1957 -0.663103 1.34316
thorax 4.2226 -0.454469 3.72565
lowerneck -22.3503 -3.40142 -10.7865
upperneck 24.523 -4.05607 10.6184
head 12.2614 -1.4458 5.19516
rclavicle 1.44119e-015 -5.96354e-015
rhumerus -35.7398 13.6772 -89.4928
rradius 31.6778
rwrist -10.4352
rhand -29.3642 -23.7378
rfingers 7.12502
rthumb -2.70347 -53.7004
lclavicle 1.44119e-015 -5.96354e-015
lhumerus -31.1516 -9.29697 88.8707
lradius 25.2931
lwrist 0.946379
lhand -11.2 -25.9687
lfingers 7.12502
lthumb 14.8278 3.4808
rfemur -20.9515 -6.60452 17.9124
rtibia 68.8859
rfoot -2.84541 -14.7555
rtoes -15.1621
lfemur -15.564 3.89022 -27.5644
ltibia 20.6223
lfoot -9.99398 3.88953
ltoes 2.40989
387
root 10.186 17.5927 25.21 5.41908 -2.65461 1.58674
lowerback -4.05957 -0.667845 -3.96185
upperback 0.579446 -0.737232 1.6328
thorax 2.94902 -0.447589 3.8655
lowerneck -22.022 -3.48937 -10.9414
upperneck 24.7211 -4.21676 10.7515
head 12.3026 -1.52538 5.25408
rclavicle 7.35503e-015 -1.47101e-014
rhumerus -36.6642 13.2414 -89.5276
rradius 31.4396
rwrist -10.0676
rhand -28.0537 -25.2077
rfingers 7.12502
rthumb -1.43779 -55.1826
lclavicle 7.35503e-015 -1.47101e-014
lhumerus -30.5311 -9.74496 88.7774
lradius 25.5349
lwrist 1.65091
lhand -10.1206 -25.5511
lfingers 7.12502
lthumb 15.8675 3.81871
rfemur -23.2993 -5.83702 19.55
rtibia 68.8863
rfoot -4.0245 -15.2026
rtoes -16.3619
lfemur -16.3483 3.44925 -26.5875
ltibia 21.4014
lfoot -10.2839 4.26569
ltoes 2.10235
388
root 10.182 17.5825 25.29 5.8435 -2.41938 0.435123
lowerback -3.52549 -0.759274 -3.1306
upperback 0.126045 -0.928997 2.14811
thorax 2.19361 -0.511554 3.92434
lowerneck -21.6932 -3.38633 -10.7689
upperneck 24.8509 -4.03165 10.2687
head 12.2462 -1.49709 5.06671
rclavicle -3.03147e-015 1.78906e-014
rhumerus -37.4512 13.1852 -89.4138
rradius 31.3271
rwrist -10.134
rhand -27.0643 -26.9125
rfingers 7.12502
rthumb -0.482179 -56.8917
lclavicle -3.03147e-015 1.78906e-014
lhumerus -29.7684 -9.57194 88.7129
lradius 25.7395
lwrist 1.53215
lhand -9.33039 -25.3135
lfingers 7.12502
lthumb 16.6284 3.99421
rfemur -25.2248 -5.14859 21.4048
rtibia 68.473
rfoot -5.01784 -15.2337
rtoes -17.0903
lfemur -16.7054 3.07032 -25.2451
ltibia 21.6044
lfoot -10.5284 4.47574
ltoes 2.02369
389
root 10.2054 17.5826 25.4302 5.83317 -2.25618 0.242885
lowerback -3.76699 -0.919464 -2.89897
upperback 0.300223 -1.15181 2.30446
thorax 2.52807 -0.630455 3.93902
lowerneck -21.7852 -3.22706 -10.6517
upperneck 24.9125 -3.76357 10.0166
head 12.2448 -1.39689 4.99522
rclavicle -8.19987e-015 -9.54166e-015
rhumerus -37.6754 13.6239 -89.4193
rradius 31.2302
rwrist -10.8053
rhand -28.3963 -26.5048
rfingers 7.12502
rthumb -1.76865 -56.4772
lclavicle -8.19987e-015 -9.54166e-015
lhumerus -28.4804 -9.6338 88.6202
lradius 25.9058
lwrist 1.51257
lhand -9.45195 -25.5327
lfingers 7.12502
lthumb 16.5114 3.78476
rfemur -26.1676 -4.9768 21.7621
rtibia 67.8795
rfoot -6.08615 -14.5191
rtoes -16.5646
lfemur -16.2642 2.63881 -25.0888
ltibia 22.0113
lfoot -11.5176 4.7448
ltoes 2.74637
